<svg xmlns="http://www.w3.org/2000/svg" viewBox="95 85 330 330">
  <defs>
    <linearGradient id="logoGradient" x1="0%" y1="0%" x2="100%" y2="100%">
      <stop offset="0%" stop-color="#5D6A7D"/>
      <stop offset="48%" stop-color="#344256"/>
      <stop offset="100%" stop-color="#172438"/>
    </linearGradient>
  </defs>
  <path fill="url(#logoGradient)" d="M 355.62 137.59
L 342.15 126.98
L 331.94 120.45
L 317.65 113.10
L 304.18 107.79
L 289.89 103.71
L 274.37 100.85
L 261.72 99.62
L 246.61 99.62
L 233.54 100.85
L 220.07 103.30
L 202.11 108.61
L 190.26 113.51
L 178.02 120.04
L 163.73 129.84
L 156.38 135.96
L 143.31 149.44
L 133.92 161.68
L 126.16 174.34
L 118.81 189.86
L 114.73 201.29
L 111.46 213.54
L 108.61 231.91
L 108.61 259.27
L 110.24 271.92
L 114.73 290.30
L 120.04 305.00
L 126.57 318.47
L 140.45 339.70
L 147.39 347.87
L 162.09 362.16
L 163.73 361.75
L 211.50 327.86
L 211.50 327.04
L 201.29 320.10
L 194.35 313.98
L 188.22 307.44
L 181.69 298.87
L 177.20 291.52
L 172.30 281.31
L 166.99 263.35
L 165.77 253.96
L 165.77 238.04
L 168.63 222.11
L 172.30 211.50
L 177.20 201.70
L 186.59 188.22
L 196.80 178.02
L 212.31 167.40
L 225.38 161.68
L 240.48 158.01
L 247.83 157.19
L 259.67 157.19
L 273.96 159.23
L 290.30 164.54
L 305.81 172.71
L 354.81 139.64
Z"/>
  <path fill="url(#logoGradient)" d="M 399.72 226.19
L 398.49 226.19
L 349.50 258.45
L 349.09 263.35
L 345.82 276.82
L 342.97 284.58
L 337.25 296.01
L 327.86 309.08
L 318.06 318.88
L 305.81 327.86
L 298.46 331.94
L 287.44 336.43
L 276.41 339.29
L 267.84 340.52
L 249.47 340.52
L 239.26 338.88
L 227.01 335.62
L 176.38 370.73
L 175.57 372.36
L 188.63 380.53
L 207.41 389.10
L 228.64 395.23
L 250.69 398.09
L 270.29 397.68
L 291.93 394.00
L 306.22 389.51
L 315.20 385.84
L 333.98 375.63
L 345.42 367.46
L 353.99 360.11
L 367.46 345.82
L 378.90 329.90
L 389.10 310.30
L 396.04 290.30
L 400.54 267.43
L 401.35 258.04
L 401.35 242.12
Z"/>
  <path fill="url(#logoGradient)" d="M 412.38 122.90
L 405.03 126.98
L 362.56 155.15
L 241.30 237.63
L 241.30 313.98
L 242.93 313.57
L 351.13 238.04
L 412.38 197.21
Z"/>
</svg>